<svg width="87" height="15" viewBox="0 0 87 15" fill="none" xmlns="http://www.w3.org/2000/svg">
<path d="M11.1993 8.94999C11.0374 9.10687 10.963 9.33374 10.9999 9.55624L11.5555 12.6312C11.6024 12.8919 11.4924 13.1556 11.2743 13.3062C11.0605 13.4625 10.7762 13.4812 10.543 13.3562L7.77492 11.9125C7.67867 11.8612 7.57179 11.8337 7.46242 11.8306H7.29304C7.23429 11.8394 7.17679 11.8581 7.12429 11.8869L4.35555 13.3375C4.21867 13.4062 4.06367 13.4306 3.9118 13.4062C3.5418 13.3362 3.29492 12.9837 3.35555 12.6119L3.9118 9.53687C3.94867 9.31249 3.8743 9.08437 3.71242 8.92499L1.45555 6.73749C1.2668 6.55437 1.20117 6.27937 1.28742 6.03125C1.37117 5.78375 1.58492 5.60313 1.84305 5.5625L4.9493 5.11187C5.18555 5.0875 5.39305 4.94375 5.4993 4.73125L6.86804 1.925C6.90054 1.8625 6.94242 1.805 6.99304 1.75625L7.04929 1.7125C7.07867 1.68 7.11242 1.65313 7.14992 1.63125L7.21804 1.60625L7.32429 1.5625H7.58742C7.82242 1.58687 8.02929 1.7275 8.13742 1.9375L9.52429 4.73125C9.62429 4.93562 9.81867 5.0775 10.043 5.11187L13.1493 5.5625C13.4118 5.6 13.6312 5.78125 13.718 6.03125C13.7999 6.28187 13.7293 6.55687 13.5368 6.73749L11.1993 8.94999Z" fill="#FBB751"/>
<path d="M29.1993 8.94999C29.0374 9.10687 28.963 9.33374 28.9999 9.55624L29.5555 12.6312C29.6024 12.8919 29.4924 13.1556 29.2743 13.3062C29.0605 13.4625 28.7762 13.4812 28.543 13.3562L25.7749 11.9125C25.6787 11.8612 25.5718 11.8337 25.4624 11.8306H25.293C25.2343 11.8394 25.1768 11.8581 25.1243 11.8869L22.3555 13.3375C22.2187 13.4062 22.0637 13.4306 21.9118 13.4062C21.5418 13.3362 21.2949 12.9837 21.3555 12.6119L21.9118 9.53687C21.9487 9.31249 21.8743 9.08437 21.7124 8.92499L19.4555 6.73749C19.2668 6.55437 19.2012 6.27937 19.2874 6.03125C19.3712 5.78375 19.5849 5.60313 19.843 5.5625L22.9493 5.11187C23.1855 5.0875 23.393 4.94375 23.4993 4.73125L24.868 1.925C24.9005 1.8625 24.9424 1.805 24.993 1.75625L25.0493 1.7125C25.0787 1.68 25.1124 1.65313 25.1499 1.63125L25.218 1.60625L25.3243 1.5625H25.5874C25.8224 1.58687 26.0293 1.7275 26.1374 1.9375L27.5243 4.73125C27.6243 4.93562 27.8187 5.0775 28.043 5.11187L31.1493 5.5625C31.4118 5.6 31.6312 5.78125 31.718 6.03125C31.7999 6.28187 31.7293 6.55687 31.5368 6.73749L29.1993 8.94999Z" fill="#FBB751"/>
<path d="M47.1993 8.94999C47.0374 9.10687 46.963 9.33374 46.9999 9.55624L47.5555 12.6312C47.6024 12.8919 47.4924 13.1556 47.2743 13.3062C47.0605 13.4625 46.7762 13.4812 46.543 13.3562L43.7749 11.9125C43.6787 11.8612 43.5718 11.8337 43.4624 11.8306H43.293C43.2343 11.8394 43.1768 11.8581 43.1243 11.8869L40.3555 13.3375C40.2187 13.4062 40.0637 13.4306 39.9118 13.4062C39.5418 13.3362 39.2949 12.9837 39.3555 12.6119L39.9118 9.53687C39.9487 9.31249 39.8743 9.08437 39.7124 8.92499L37.4555 6.73749C37.2668 6.55437 37.2012 6.27937 37.2874 6.03125C37.3712 5.78375 37.5849 5.60313 37.843 5.5625L40.9493 5.11187C41.1855 5.0875 41.393 4.94375 41.4993 4.73125L42.868 1.925C42.9005 1.8625 42.9424 1.805 42.993 1.75625L43.0493 1.7125C43.0787 1.68 43.1124 1.65313 43.1499 1.63125L43.218 1.60625L43.3243 1.5625H43.5874C43.8224 1.58687 44.0293 1.7275 44.1374 1.9375L45.5243 4.73125C45.6243 4.93562 45.8187 5.0775 46.043 5.11187L49.1493 5.5625C49.4118 5.6 49.6312 5.78125 49.718 6.03125C49.7999 6.28187 49.7293 6.55687 49.5368 6.73749L47.1993 8.94999Z" fill="#FBB751"/>
<path d="M65.1993 8.94999C65.0374 9.10687 64.963 9.33374 64.9999 9.55624L65.5555 12.6312C65.6024 12.8919 65.4924 13.1556 65.2743 13.3062C65.0605 13.4625 64.7762 13.4812 64.543 13.3562L61.7749 11.9125C61.6787 11.8612 61.5718 11.8337 61.4624 11.8306H61.293C61.2343 11.8394 61.1768 11.8581 61.1243 11.8869L58.3555 13.3375C58.2187 13.4062 58.0637 13.4306 57.9118 13.4062C57.5418 13.3362 57.2949 12.9837 57.3555 12.6119L57.9118 9.53687C57.9487 9.31249 57.8743 9.08437 57.7124 8.92499L55.4555 6.73749C55.2668 6.55437 55.2012 6.27937 55.2874 6.03125C55.3712 5.78375 55.5849 5.60313 55.843 5.5625L58.9493 5.11187C59.1855 5.0875 59.393 4.94375 59.4993 4.73125L60.868 1.925C60.9005 1.8625 60.9424 1.805 60.993 1.75625L61.0493 1.7125C61.0787 1.68 61.1124 1.65313 61.1499 1.63125L61.218 1.60625L61.3243 1.5625H61.5874C61.8224 1.58687 62.0293 1.7275 62.1374 1.9375L63.5243 4.73125C63.6243 4.93562 63.8187 5.0775 64.043 5.11187L67.1493 5.5625C67.4118 5.6 67.6312 5.78125 67.718 6.03125C67.7999 6.28187 67.7293 6.55687 67.5368 6.73749L65.1993 8.94999Z" fill="#FBB751"/>
<mask id="mask0_1446_24017" style="mask-type:alpha" maskUnits="userSpaceOnUse" x="55" y="1" width="13" height="13">
<path d="M65.2491 8.96745C65.0872 9.12432 65.0128 9.3512 65.0497 9.5737L65.6053 12.6487C65.6522 12.9093 65.5422 13.1731 65.3241 13.3237C65.1103 13.4799 64.826 13.4987 64.5928 13.3737L61.8247 11.9299C61.7285 11.8787 61.6216 11.8512 61.5122 11.8481H61.3428C61.2841 11.8568 61.2266 11.8756 61.1741 11.9043L58.4054 13.3549C58.2685 13.4237 58.1135 13.4481 57.9616 13.4237C57.5916 13.3537 57.3447 13.0012 57.4054 12.6293L57.9616 9.55432C57.9985 9.32995 57.9241 9.10182 57.7622 8.94245L55.5054 6.75495C55.3166 6.57182 55.251 6.29682 55.3372 6.04871C55.421 5.80121 55.6347 5.62058 55.8929 5.57996L58.9991 5.12933C59.2354 5.10496 59.4429 4.96121 59.5491 4.74871L60.9178 1.94246C60.9503 1.87996 60.9922 1.82246 61.0428 1.77371L61.0991 1.72996C61.1285 1.69746 61.1622 1.67058 61.1997 1.64871L61.2678 1.62371L61.3741 1.57996H61.6372C61.8722 1.60433 62.0791 1.74496 62.1872 1.95496L63.5741 4.74871C63.6741 4.95308 63.8685 5.09496 64.0928 5.12933L67.1991 5.57996C67.4616 5.61746 67.681 5.79871 67.7678 6.04871C67.8497 6.29932 67.7791 6.57432 67.5866 6.75495L65.2491 8.96745Z" fill="#FBB751"/>
</mask>
<g mask="url(#mask0_1446_24017)">
<rect x="61.5498" y="-0.982544" width="7" height="16" fill="#D3D5D9"/>
</g>
<path d="M83.1993 8.94999C83.0374 9.10687 82.963 9.33374 82.9999 9.55624L83.5555 12.6312C83.6024 12.8919 83.4924 13.1556 83.2743 13.3062C83.0605 13.4625 82.7762 13.4812 82.543 13.3562L79.7749 11.9125C79.6787 11.8612 79.5718 11.8337 79.4624 11.8306H79.293C79.2343 11.8394 79.1768 11.8581 79.1243 11.8869L76.3555 13.3375C76.2187 13.4062 76.0637 13.4306 75.9118 13.4062C75.5418 13.3362 75.2949 12.9837 75.3555 12.6119L75.9118 9.53687C75.9487 9.31249 75.8743 9.08437 75.7124 8.92499L73.4555 6.73749C73.2668 6.55437 73.2012 6.27937 73.2874 6.03125C73.3712 5.78375 73.5849 5.60313 73.843 5.5625L76.9493 5.11187C77.1855 5.0875 77.393 4.94375 77.4993 4.73125L78.868 1.925C78.9005 1.8625 78.9424 1.805 78.993 1.75625L79.0493 1.7125C79.0787 1.68 79.1124 1.65313 79.1499 1.63125L79.218 1.60625L79.3243 1.5625H79.5874C79.8224 1.58687 80.0293 1.7275 80.1374 1.9375L81.5243 4.73125C81.6243 4.93562 81.8187 5.0775 82.043 5.11187L85.1493 5.5625C85.4118 5.6 85.6312 5.78125 85.718 6.03125C85.7999 6.28187 85.7293 6.55687 85.5368 6.73749L83.1993 8.94999Z" fill="#D3D5D9"/>
</svg>
